<?xml version="1.0" encoding="utf-8"?>
<svg id="master-artboard" viewBox="0 0 800 600" version="1.1" xmlns="http://www.w3.org/2000/svg" x="0px" y="0px" width="800px" height="600px" enable-background="new 0 0 800 600" xmlns:xlink="http://www.w3.org/1999/xlink">
<path d="M 0.5 0 H 799.5 V 600 H 0.5 V 0 Z" fill="#89D3E2" transform="matrix(1, 0, 0, 1, 0, 0)" style="fill: rgb(255, 255, 255); fill-opacity: 0;"/><path d="M 660 300 A 260 260 0 0 1 400 560 A 260 260 0 0 1 140 300 A 260 260 0 0 1 400 40 A 260 260 0 0 1 660 300 Z" fill="#FFFFFF" transform="matrix(1, 0, 0, 1, 0, 0)"/><path fill="#D5D8DA" d="M444.6,228.7l-12.7-35l-40.9,9.1c-6.2-9.6-13.9-17.9-22.6-24.8l13.2-39.7l-33.8-15.7l-22.5,35.3&#10;&#9;&#9;&#9;&#9;c-10.9-2.3-22.2-2.8-33.5-1.5L273.1,119l-35,12.7l9.1,40.9c-9.6,6.2-17.9,13.9-24.8,22.6L182.7,182L167,215.8l35.3,22.5&#10;&#9;&#9;&#9;&#9;c-2.3,10.9-2.8,22.2-1.5,33.5l-37.4,18.7l12.7,35l40.9-9.1c6.2,9.6,13.9,17.9,22.6,24.8l-13.2,39.7l33.8,15.7l22.5-35.3&#10;&#9;&#9;&#9;&#9;c10.9,2.3,22.2,2.8,33.5,1.5l18.7,37.4l35-12.7l-9.1-40.9c9.6-6.2,17.9-13.9,24.8-22.6l39.7,13.2l15.7-33.8l-35.3-22.5&#10;&#9;&#9;&#9;&#9;c2.3-10.9,2.8-22.2,1.5-33.5L444.6,228.7z M324.2,315.1c-30.7,11.2-64.6-4.7-75.8-35.3c-11.2-30.7,4.7-64.6,35.3-75.8&#10;&#9;&#9;&#9;&#9;c30.7-11.2,64.6,4.7,75.8,35.3C370.7,270,354.9,304,324.2,315.1z" transform="matrix(1, 0, 0, 1, 0, 0)"/><path fill="#D5D8DA" d="M636.6,305.5l-5.7-15.6l-18.2,4c-2.8-4.3-6.2-8-10.1-11l5.9-17.7l-15-7l-10,15.7c-4.8-1-9.9-1.3-14.9-0.7&#10;&#9;&#9;&#9;&#9;l-8.3-16.7l-15.6,5.7l4,18.2c-4.3,2.8-8,6.2-11,10.1l-17.7-5.9l-7,15l15.7,10c-1,4.8-1.3,9.9-0.7,14.9l-16.7,8.3l5.7,15.6l18.2-4&#10;&#9;&#9;&#9;&#9;c2.8,4.3,6.2,8,10.1,11l-5.9,17.7l15,7l10-15.7c4.8,1,9.9,1.3,14.9,0.7l8.3,16.7l15.6-5.7l-4-18.2c4.3-2.8,8-6.2,11-10.1&#10;&#9;&#9;&#9;&#9;l17.7,5.9l7-15l-15.7-10c1-4.8,1.3-9.9,0.7-14.9L636.6,305.5z M583,344c-13.7,5-28.8-2.1-33.8-15.7c-5-13.7,2.1-28.8,15.7-33.8&#10;&#9;&#9;&#9;&#9;c13.7-5,28.8,2.1,33.8,15.7C603.7,323.9,596.7,339.1,583,344z" transform="matrix(1, 0, 0, 1, 0, 0)"/><path fill="#D5D8DA" d="M519.7,400.2c0-5.3-0.7-10.4-2.1-15.3l21.3-15.8l-10.6-18.3L503.8,361c-7.1-7.3-16.2-12.7-26.5-15.3&#10;&#9;&#9;&#9;&#9;l-3-26.4h-21.1l-3.5,26.4c-10.2,2.6-19.3,8-26.5,15.3l-24.4-10.6l-10.6,18.3l21.1,16.2c-1.4,4.9-2.1,10-2.1,15.3&#10;&#9;&#9;&#9;&#9;c0,5.3,0.7,10.4,2.1,15.3l-21.3,15.8l10.6,18.3l24.6-10.2c7.1,7.3,16.2,12.7,26.5,15.3l3,26.4h21.1l3.5-26.4&#10;&#9;&#9;&#9;&#9;c10.2-2.6,19.3-8,26.5-15.3l24.4,10.6l10.6-18.3l-21.1-16.2C519,410.6,519.7,405.5,519.7,400.2z M463.5,430.8&#10;&#9;&#9;&#9;&#9;c-16.9,0-30.7-13.7-30.7-30.7c0-16.9,13.7-30.7,30.7-30.7c16.9,0,30.7,13.7,30.7,30.7C494.2,417.1,480.4,430.8,463.5,430.8z" transform="matrix(1, 0, 0, 1, 0, 0)"/><defs>
				<path d="M 660 300 A 260 260 0 0 1 400 560 A 260 260 0 0 1 140 300 A 260 260 0 0 1 400 40 A 260 260 0 0 1 660 300 Z" id="SVGID_1_"/>
			</defs><clipPath id="SVGID_2_">
				<use overflow="visible" xlink:href="#SVGID_1_"/>
			</clipPath><path d="M 519.7999877929688 296 L 549.2000122070312 326.1000061035156 L 486 396.70001220703125 L 456.70001220703125 374.70001220703125 Z" fill="#2F2F39" transform="matrix(1, 0, 0, 1, 0, 0)"/><path fill="#E6E7E8" d="M465.9,390.3l83.3-75.9L476,167.8l-47.8,26.5l-88,165.8C340.1,360.2,397.3,395.8,465.9,390.3z" transform="matrix(1, 0, 0, 1, 0, 0)"/><path fill="#F8A076" d="M445.7,134.9c0,0-59.7-25-77.3-26.7c-20.6-2-57.7,101.8-57.7,101.8l59.8,11.6l10.6-66.4&#10;&#9;&#9;&#9;&#9;&#9;C381.2,155.2,432.5,169.8,445.7,134.9z" transform="matrix(1, 0, 0, 1, 0, 0)"/><path fill="#2F2F39" d="M387.9,123.3l19.3-8c12.2-5.1,26.2-0.8,33.5,10.2l12.1,18.3l-37.4,10.3L387.9,123.3z" transform="matrix(1, 0, 0, 1, 0, 0)"/><path fill="#E6E7E8" d="M401.7,112.1L347,134.9c0,0,10.8,25.2,30.9,24.9s37.6-5.7,37.6-5.7L401.7,112.1z" transform="matrix(1, 0, 0, 1, 0, 0)"/><path d="M 415.5 154.10000610351562 L 441.8999938964844 117.5999984741211 L 476 167.8000030517578 L 428.20001220703125 194.39999389648438 Z" fill="#E6E7E8" transform="matrix(1, 0, 0, 1, 0, 0)"/><path fill="#FDCAA1" d="M556.1,293.6l-2.6-6.3c-3.6-8.6-13-12.8-21.7-10.2l6.1-2.9c10.4-4.9,14.6-17.5,9.2-27.7l-3.6-6.8&#10;&#9;&#9;&#9;&#9;&#9;&#9;c-4.3-8.1-13.3-12-21.8-10.3c9.2-6.4,11.8-19,5.7-28.6l-4.3-6.7c-5.2-8.1-14.9-11.4-23.5-8.9c7.8-7.3,9-19.4,2.5-28.1l-4.8-6.4&#10;&#9;&#9;&#9;&#9;&#9;&#9;c-8-12-94.7,14.3-147.1,31.6l-26.1-14.5l-73.2,146.6l-112.9,76.4l82.8,100.9l113.5-101.5c68.6,5.5,125.7-30.1,125.7-30.1&#10;&#9;&#9;&#9;&#9;&#9;&#9;l85.8-42.9C555.3,313.8,560,303,556.1,293.6z" transform="matrix(1, 0, 0, 1, 0, 0)"/><path fill="#F8A076" d="M445.7,205.6l53.9-20.3c4.5-4.2,6.8-10.1,6.6-16L445.7,205.6z" transform="matrix(1, 0, 0, 1, 0, 0)"/><path fill="#F8A076" d="M521.8,229.5c5-3.5,8-8.9,8.8-14.6l-73.8,33.3L521.8,229.5z" transform="matrix(1, 0, 0, 1, 0, 0)"/><path fill="#F8A076" d="M531.8,277.2l6.1-2.9c7.1-3.3,11.2-10.2,11.5-17.5l-86.3,41.5L531.8,277.2z" transform="matrix(1, 0, 0, 1, 0, 0)"/><g transform="matrix(1, 0, 0, 1, 0, 0)">
						<path fill="#2F2F39" d="M299.9,186.8l66.8,41.5l20.7-29.8l-62.1-48.2c-10.1-7.8-24.6-5.6-31.9,4.9l0,0&#10;&#9;&#9;&#9;&#9;&#9;&#9;&#9;C286.1,165.6,289.1,180.1,299.9,186.8z"/>
						<path fill="#E6E7E8" d="M296.9,188.5l47.9,28.6c1.6,1,3.8,0.5,4.9-1l20.3-29.2c1.1-1.6,0.8-3.7-0.7-4.9l-43.4-35&#10;&#9;&#9;&#9;&#9;&#9;&#9;&#9;c-6.6-5.3-16.3-3.9-21.2,3l-12.3,17.7C287.5,174.6,289.6,184.2,296.9,188.5z"/>
						<path fill="#E6E7E8" d="M355.4,223.6l22.9,12.7c8.1,4.5,18.3,2.1,23.6-5.5v0c5.3-7.6,4-18-3-24L379,189.7&#10;&#9;&#9;&#9;&#9;&#9;&#9;&#9;c-1.6-1.4-4.1-1.1-5.4,0.7l-19.4,27.9C352.9,220,353.5,222.5,355.4,223.6z"/>
					</g><path fill="#2F2F39" d="M278.1,227.9l69.7,36l18.3-31.3l-65.6-43c-10.6-7-24.9-3.6-31.3,7.4v0&#10;&#9;&#9;&#9;&#9;&#9;&#9;&#9;C262.7,208,266.8,222.1,278.1,227.9z" transform="matrix(1, 0, 0, 1, 0, 0)"/><path fill="#E6E7E8" d="M275.3,229.9l49.8,24.6c1.7,0.8,3.8,0.2,4.8-1.4l17.9-30.7c1-1.7,0.5-3.8-1.1-4.9l-45.9-31.3&#10;&#9;&#9;&#9;&#9;&#9;&#9;&#9;c-7-4.8-16.6-2.6-20.9,4.7l-10.8,18.5C264.9,216.7,267.7,226.1,275.3,229.9z" transform="matrix(1, 0, 0, 1, 0, 0)"/><path fill="#E6E7E8" d="M336.3,260.1l23.8,10.8c8.4,3.8,18.3,0.7,23-7.3l0,0c4.7-8,2.5-18.2-4.9-23.6L357,224.5&#10;&#9;&#9;&#9;&#9;&#9;&#9;&#9;c-1.7-1.3-4.2-0.8-5.3,1.1l-17.1,29.3C333.5,256.8,334.3,259.2,336.3,260.1z" transform="matrix(1, 0, 0, 1, 0, 0)"/><path fill="#2F2F39" d="M263.8,270.4l68.1,27.9l14.5-30.7l-64.9-34.8c-10.5-5.6-23.6-1.3-28.7,9.5l0,0&#10;&#9;&#9;&#9;&#9;&#9;&#9;&#9;C247.8,253,252.8,265.9,263.8,270.4z" transform="matrix(1, 0, 0, 1, 0, 0)"/><path fill="#E6E7E8" d="M262.2,272.8l47.7,18.5c1.7,0.7,3.6-0.1,4.3-1.7l14.2-30.1c0.8-1.6,0.1-3.6-1.4-4.4l-44.6-25&#10;&#9;&#9;&#9;&#9;&#9;&#9;&#9;c-7.4-4.1-16.8-1.1-20.4,6.5l-7.7,16.4C250.7,260.6,254.3,269.7,262.2,272.8z" transform="matrix(1, 0, 0, 1, 0, 0)"/><path fill="#E6E7E8" d="M320.8,295.6l23.1,8.1c8.2,2.9,17.2-0.9,20.9-8.7l0,0c3.7-7.8,0.9-17.2-6.6-21.7l-21-12.7&#10;&#9;&#9;&#9;&#9;&#9;&#9;&#9;c-1.7-1-4-0.4-4.9,1.5l-13.6,28.8C318,292.8,318.9,295,320.8,295.6z" transform="matrix(1, 0, 0, 1, 0, 0)"/><path fill="#2F2F39" d="M252.4,311.7l64.9,19.5l10.5-29.4l-62.5-26.1c-10.1-4.2-21.7,0.9-25.4,11.2l0,0&#10;&#9;&#9;&#9;&#9;&#9;&#9;&#9;C236.1,297.2,241.8,308.6,252.4,311.7z" transform="matrix(1, 0, 0, 1, 0, 0)"/><path fill="#E6E7E8" d="M252.3,314.4l44.2,12.4c1.6,0.4,3.3-0.4,3.8-2l10.3-28.9c0.6-1.6-0.2-3.3-1.7-3.9l-42-18.4&#10;&#9;&#9;&#9;&#9;&#9;&#9;&#9;c-7.8-3.4-16.8,0.5-19.7,8.5l-4.8,13.4C239.6,303.4,244.1,312.1,252.3,314.4z" transform="matrix(1, 0, 0, 1, 0, 0)"/><path fill="#E6E7E8" d="M306.8,329.8l21.9,5.4c7.7,1.9,15.7-2.4,18.4-9.9v0c2.7-7.5-0.7-15.8-7.9-19.3l-20.4-9.7&#10;&#9;&#9;&#9;&#9;&#9;&#9;&#9;c-1.7-0.8-3.7,0-4.3,1.8l-9.9,27.6C304,327.4,305,329.3,306.8,329.8z" transform="matrix(1, 0, 0, 1, 0, 0)"/><path d="M 551.7999877929688 322.8999938964844 L 483 400 L 579.2999877929688 491.79998779296875 L 662.0999755859375 390.8999938964844 Z" fill="#E6E7E8" transform="matrix(1, 0, 0, 1, 0, 0)"/><path d="M 507.5 372.5 L 610.7000122070312 453.5 L 611.5 452.5 L 508.3999938964844 371.6000061035156 Z" fill="#BDC3C7" transform="matrix(1, 0, 0, 1, 0, 0)"/>
</svg>